/* XPM */
static char * file_xpm[] = {
"16 16 6 1",
" 	c None",
".	c #FFFFFF",
"+	c #999999",
"@	c #CCCCCC",
"#	c #FFFF00",
"$	c #000000",
"................",
"................",
"...+++++........",
"..+@#@#@+.......",
".+@#@#@#@++++++.",
".+............+$",
".+.#@#@#@#@#@#+$",
".+.@#@#@#@#@#@+$",
".+.#@#@#@#@#@#+$",
".+.@#@#@#@#@#@+$",
".+.#@#@#@#@#@#+$",
".+.@#@#@#@#@#@+$",
".+.#@#@#@#@#@#+$",
".++++++++++++++$",
"..$$$$$$$$$$$$$$",
"................"};
