/* XPM */
static const char * const back_xpm [] = {
    "13 11 3 1",
    "a c #00ffff",
    "# c #000000",
    ". c None",
    ".....#.......",
    "....##.......",
    "...#a#.......",
    "..#aa########",
    ".#aaaaaaaaaa#",
    "#aaaaaaaaaaa#",
    ".#aaaaaaaaaa#",
    "..#aa########",
    "...#a#.......",
    "....##.......",
    ".....#......."};
