/* XPM */
static const char* const detailedview_xpm[]={
    "14 11 3 1",
    ". c None",
    "* c #000000",
    "a c #000099",
    ".****.***.***.",
    "..............",
    "aaaaaaaaaaaaaa",
    "..............",
    ".****.***.***.",
    "..............",
    ".****.***.***.",
    "..............",
    ".****.***.***.",
    "..............",
    ".****.***.***."};
