/* XPM */
static const char * const start_xpm[]={
    "16 15 8 1",
    "a c #cec6bd",
    "# c #000000",
    "e c #ffff00",
    "b c #999999",
    "f c #cccccc",
    "d c #dcdcdc",
    "c c #ffffff",
    ". c None",
    ".....######aaaaa",
    "...bb#cccc##aaaa",
    "..bcc#cccc#d#aaa",
    ".bcef#cccc#dd#aa",
    ".bcfe#cccc#####a",
    ".bcef#ccccccccc#",
    "bbbbbbbbbbbbccc#",
    "bccccccccccbbcc#",
    "bcefefefefee#bc#",
    ".bcefefefefef#c#",
    ".bcfefefefefe#c#",
    "..bcfefefefeeb##",
    "..bbbbbbbbbbbbb#",
    "...#############",
    "................"};
