/* XPM */
static const char * const end_xpm[]={
    "16 15 9 1",
    "d c #a0a0a0",
    "c c #c3c3c3",
    "# c #cec6bd",
    ". c #000000",
    "f c #ffff00",
    "e c #999999",
    "g c #cccccc",
    "b c #ffffff",
    "a c None",
    "......####aaaaaa",
    ".bbbb..###aaaaaa",
    ".bbbb.c.##aaaaaa",
    ".bbbb....ddeeeea",
    ".bbbbbbb.bbbbbe.",
    ".bbbbbbb.bcfgfe.",
    "eeeeeeeeeeeeefe.",
    "ebbbbbbbbbbeege.",
    "ebfgfgfgfgff.ee.",
    "aebfgfgfgfgfg.e.",
    "aebgfgfgfgfgf.e.",
    "aaebgfgfgfgffe..",
    "aaeeeeeeeeeeeee.",
    "aaa.............",
    "aaaaaaaaaaaaaaaa"};
