/* XPM */
static const char * const link_file_xpm[]={
    "16 16 10 1",
    "h c #808080",
    "g c #a0a0a0",
    "d c #c3c3c3",
    ". c #7f7f7f",
    "c c #000000",
    "b c #bfbfbf",
    "f c #303030",
    "e c #585858",
    "a c #ffffff",
    "# c None",
    "################",
    "..........######",
    ".aaaaaaaab.#####",
    ".aaaaaaaaba.####",
    ".aaaaaaaacccc###",
    ".aaaaaaaaaabc###",
    ".aaaaaaaaaabc###",
    ".aaaaaaaaaadc###",
    ".aaaaaaaaaadc###",
    ".aaaacccccccc###",
    ".aaaacaaaaaac###",
    ".aaaacaeaeaac###",
    ".aaaacaefcfac###",
    ".aaaacaagchac###",
    ".ddddcaaahaac###",
    "ccccccccccccc###"};
