/* XPM */
static const char* const file_xpm[]={
    "16 16 5 1",
    ". c #7f7f7f",
    "# c None",
    "c c #000000",
    "b c #bfbfbf",
    "a c #ffffff",
    "################",
    "..........######",
    ".aaaaaaaab.#####",
    ".aaaaaaaaba.####",
    ".aaaaaaaacccc###",
    ".aaaaaaaaaabc###",
    ".aaaaaaaaaabc###",
    ".aaaaaaaaaabc###",
    ".aaaaaaaaaabc###",
    ".aaaaaaaaaabc###",
    ".aaaaaaaaaabc###",
    ".aaaaaaaaaabc###",
    ".aaaaaaaaaabc###",
    ".aaaaaaaaaabc###",
    ".bbbbbbbbbbbc###",
    "ccccccccccccc###"};
