/* XPM */
static const char* const mclistview_xpm[]={
    "15 11 4 1",
    "* c None",
    "b c #000000",
    ". c #000099",
    "a c #ffffff",
    "...*****...****",
    ".a.*bbb*.a.*bbb",
    "...*****...****",
    "***************",
    "...*****...****",
    ".a.*bbb*.a.*bbb",
    "...*****...****",
    "***************",
    "...*****...****",
    ".a.*bbb*.a.*bbb",
    "...*****...****"};
