/* XPM */
static const char * const link_dir_xpm[]={
    "16 16 10 1",
    "h c #808080",
    "g c #a0a0a0",
    "d c #000000",
    "b c #ffff00",
    "f c #303030",
    "# c #999999",
    "a c #cccccc",
    "e c #585858",
    "c c #ffffff",
    ". c None",
    "................",
    "................",
    "..#####.........",
    ".#ababa#........",
    "#abababa######..",
    "#cccccccccccc#d.",
    "#cbababababab#d.",
    "#cabababababa#d.",
    "#cbababdddddddd.",
    "#cababadccccccd.",
    "#cbababdcececcd.",
    "#cababadcefdfcd.",
    "#cbababdccgdhcd.",
    "#######dccchccd.",
    ".dddddddddddddd.",
    "................"};
