/* XPM */
static const char* const previewinfoview_xpm[]={
    "13 13 4 1",
    ". c #00007f",
    "a c black",
    "# c #cec6bd",
    "b c #000000",
    "..#####aaaaaa",
    ".#.#bb#a#####",
    "...####a#bbb#",
    "#######a#####",
    "#######a#bb##",
    "..#####a#####",
    ".#.#bb#a#bbb#",
    "...####a#####",
    "#######a#bb##",
    "#######a#####",
    "..#####a#bbb#",
    ".#.#bb#a#####",
    "...####aaaaaa"};
